# xmcd CD database file
#
# Track frame offsets:
#	150
#	19043
#	37894
#	53997
#	71565
#	93614
#	113115
#	133084
#	150811
#	168756
#	185557
#	205740
#	215995
#	233011
#	251296
#
# Disc length: 3528 seconds
#
# Revision: 0
# Processed by: cddbd v1.5.2PL0 Copyright (c) Steve Scherf et al.
# Submitted via: CDex 1.70beta2
#
DISCID=c50dc60f
DTITLE=LES YEUX NOIRS - Best Oyf (Best Of)
DYEAR=2007
DGENRE=Jazz
TTITLE0=Oï Tzigané
TTITLE1=Sanie Cu Zurgalai
TTITLE2=Beltz 
TTITLE3=Balamouk 
TTITLE4=Rêve 
TTITLE5=Les Deux Guitares
TTITLE6=Hora De Mîna
TTITLE7=Trado Trado
TTITLE8=Tchaye 
TTITLE9=Droujba 
TTITLE10=Ot Azoy
TTITLE11=Danse Des Flèches
TTITLE12=Yankele 
TTITLE13=Désirs Dérisoires
TTITLE14=Liebkeit 
EXTD=YEAR: 2007
EXTT0=
EXTT1=
EXTT2=
EXTT3=
EXTT4=
EXTT5=
EXTT6=
EXTT7=
EXTT8=
EXTT9=
EXTT10=
EXTT11=
EXTT12=
EXTT13=
EXTT14=
PLAYORDER=
